<?xml version="1.0" encoding="UTF-8"?>
<svg width="571px" height="647px" viewBox="0 0 571 647" version="1.1" xmlns="http://www.w3.org/2000/svg" xmlns:xlink="http://www.w3.org/1999/xlink">
    <!-- Generator: Sketch 57.1 (83088) - https://sketch.com -->
    <title>Artboard</title>
    <desc>Created with Sketch.</desc>
    <g id="Page-1" stroke="none" stroke-width="1" fill="none" fill-rule="evenodd">
        <g id="Artboard" transform="translate(-2912.000000, -601.000000)">
            <g id="Group-8" transform="translate(3035.500000, 750.435547)">
                <path d="M73.0605469,90.1855469 L73.0605469,292.685547 L11,292.685547 L11,90.1855469 L73.0605469,90.1855469 Z M190.345777,0 C236.682365,0 272.663868,12.6121786 298.291367,37.8369141 C323.918865,63.0616496 336.732422,98.2956722 336.732422,143.540039 C336.732422,191.720619 323.433503,228.622919 296.835266,254.248047 C270.237029,279.873175 231.828716,292.685547 181.609174,292.685547 L101.232422,292.685547 L101.232,241.185 L163.292,241.185 L163.292969,241.435547 L189.918945,241.435547 C249.710911,241.435547 279.606445,209.337886 279.606445,145.141602 C279.606445,82.2799591 251.846306,50.8496094 196.325195,50.8496094 L163.292969,50.8496094 L163.292,213 L101.232,213 L101.232422,0 L190.345777,0 Z M73.0605469,0 L73.0605469,62 L11,62 L11,0 L73.0605469,0 Z" id="Combined-Shape-Copy-8" fill="#0067AC" fill-rule="nonzero"></path>
                <text id="LAB-Copy-8" font-family="AvenirNext-Regular, Avenir Next" font-size="122" font-weight="normal" letter-spacing="54" fill="#334958">
                    <tspan x="0" y="436">LAB</tspan>
                </text>
            </g>
        </g>
    </g>
</svg>