<?xml version="1.0" encoding="iso-8859-1"?>
<!-- Generator: Adobe Illustrator 17.1.0, SVG Export Plug-In . SVG Version: 6.00 Build 0)  -->
<!DOCTYPE svg PUBLIC "-//W3C//DTD SVG 1.1//EN" "http://www.w3.org/Graphics/SVG/1.1/DTD/svg11.dtd">
<svg version="1.1" id="Capa_1" xmlns="http://www.w3.org/2000/svg" xmlns:xlink="http://www.w3.org/1999/xlink" x="0px" y="0px"
	 viewBox="0 0 361.602 361.602" style="enable-background:new 0 0 361.602 361.602;" xml:space="preserve">
<g>
	<path d="M226.602,50.301C226.602,22.565,204.038,0,176.301,0S126,22.565,126,50.301c0,27.736,22.565,50.301,50.301,50.301
		S226.602,78.037,226.602,50.301z"/>
	<path d="M292.301,152.602c24.979,0,45.301-20.322,45.301-45.301S317.28,62,292.301,62S247,82.322,247,107.301
		S267.323,152.602,292.301,152.602z"/>
	<path d="M309.301,194C287.08,194,269,212.079,269,234.301c0,22.222,18.079,40.301,40.301,40.301s40.301-18.079,40.301-40.301
		C349.602,212.079,331.523,194,309.301,194z"/>
	<path d="M241.301,289C221.836,289,206,304.836,206,324.301c0,19.465,15.836,35.301,35.301,35.301s35.301-15.836,35.301-35.301
		C276.602,304.836,260.766,289,241.301,289z"/>
	<path d="M136.301,301C119.593,301,106,314.593,106,331.301s13.593,30.301,30.301,30.301s30.301-13.593,30.301-30.301
		S153.009,301,136.301,301z"/>
	<circle cx="56.301" cy="274.301" r="25.301"/>
	<circle cx="30.301" cy="192.301" r="18.301"/>
</g>
<g>
</g>
<g>
</g>
<g>
</g>
<g>
</g>
<g>
</g>
<g>
</g>
<g>
</g>
<g>
</g>
<g>
</g>
<g>
</g>
<g>
</g>
<g>
</g>
<g>
</g>
<g>
</g>
<g>
</g>
</svg>
